<svg width="450" height="544" viewBox="0 0 450 544" fill="none" xmlns="http://www.w3.org/2000/svg">
<g filter="url(#filter0_fg_142_2)">
<path d="M323.122 430.93L230.171 120.718C229.798 119.225 229.424 117.732 229.051 116.239C229.051 114.745 229.051 113.625 229.051 112.879C229.051 109.146 230.357 106.159 232.971 103.92C235.584 101.307 238.757 100 242.49 100C248.836 100 253.315 104.293 255.928 112.879L348.88 423.091C349.627 424.211 350 425.517 350 427.011C350 428.13 350 429.437 350 430.93C350 434.29 348.693 437.09 346.08 439.329C343.467 441.943 340.294 443.249 336.561 443.249C330.215 443.249 325.736 439.143 323.122 430.93Z" fill="url(#paint0_linear_142_2)"/>
<path d="M101.12 423.091L194.072 112.879C196.311 104.293 200.791 100 207.51 100C211.243 100 214.416 101.307 217.029 103.92C219.643 106.159 220.949 109.146 220.949 112.879C220.949 113.625 220.949 114.745 220.949 116.239C220.949 117.732 220.576 119.225 219.829 120.718L126.878 430.93C124.264 439.143 119.785 443.249 113.439 443.249C109.706 443.249 106.533 441.943 103.92 439.329C101.307 437.09 100 434.29 100 430.93C100 429.437 100 428.13 100 427.011C100.373 425.517 100.747 424.211 101.12 423.091Z" fill="url(#paint1_linear_142_2)"/>
</g>
<g filter="url(#filter1_fg_142_2)">
<path d="M323.122 430.93L230.171 120.718C229.798 119.225 229.424 117.732 229.051 116.239C229.051 114.745 229.051 113.625 229.051 112.879C229.051 109.146 230.357 106.159 232.971 103.92C235.584 101.307 238.757 100 242.49 100C248.836 100 253.315 104.293 255.928 112.879L348.88 423.091C349.627 424.211 350 425.517 350 427.011C350 428.13 350 429.437 350 430.93C350 434.29 348.693 437.09 346.08 439.329C343.467 441.943 340.294 443.249 336.561 443.249C330.215 443.249 325.736 439.143 323.122 430.93Z" fill="url(#paint2_linear_142_2)"/>
<path d="M101.12 423.091L194.072 112.879C196.311 104.293 200.791 100 207.51 100C211.243 100 214.416 101.307 217.029 103.92C219.643 106.159 220.949 109.146 220.949 112.879C220.949 113.625 220.949 114.745 220.949 116.239C220.949 117.732 220.576 119.225 219.829 120.718L126.878 430.93C124.264 439.143 119.785 443.249 113.439 443.249C109.706 443.249 106.533 441.943 103.92 439.329C101.307 437.09 100 434.29 100 430.93C100 429.437 100 428.13 100 427.011C100.373 425.517 100.747 424.211 101.12 423.091Z" fill="url(#paint3_linear_142_2)"/>
<g filter="url(#filter2_fg_142_2)">
<path d="M323.122 430.93L230.171 120.718C229.798 119.225 229.424 117.732 229.051 116.239C229.051 114.745 229.051 113.625 229.051 112.879C229.051 109.146 230.357 106.159 232.971 103.92C235.584 101.307 238.757 100 242.49 100C248.836 100 253.315 104.293 255.928 112.879L348.88 423.091C349.627 424.211 350 425.517 350 427.011C350 428.13 350 429.437 350 430.93C350 434.29 348.693 437.09 346.08 439.329C343.467 441.943 340.294 443.249 336.561 443.249C330.215 443.249 325.736 439.143 323.122 430.93Z" fill="url(#paint4_linear_142_2)"/>
<path d="M101.12 423.091L194.072 112.879C196.311 104.293 200.791 100 207.51 100C211.243 100 214.416 101.307 217.029 103.92C219.643 106.159 220.949 109.146 220.949 112.879C220.949 113.625 220.949 114.745 220.949 116.239C220.949 117.732 220.576 119.225 219.829 120.718L126.878 430.93C124.264 439.143 119.785 443.249 113.439 443.249C109.706 443.249 106.533 441.943 103.92 439.329C101.307 437.09 100 434.29 100 430.93C100 429.437 100 428.13 100 427.011C100.373 425.517 100.747 424.211 101.12 423.091Z" fill="url(#paint5_linear_142_2)"/>
<g filter="url(#filter3_fg_142_2)">
<path d="M323.122 430.93L230.171 120.718C229.798 119.225 229.424 117.732 229.051 116.239C229.051 114.745 229.051 113.625 229.051 112.879C229.051 109.146 230.357 106.159 232.971 103.92C235.584 101.307 238.757 100 242.49 100C248.836 100 253.315 104.293 255.928 112.879L348.88 423.091C349.627 424.211 350 425.517 350 427.011C350 428.13 350 429.437 350 430.93C350 434.29 348.693 437.09 346.08 439.329C343.467 441.943 340.294 443.249 336.561 443.249C330.215 443.249 325.736 439.143 323.122 430.93Z" fill="url(#paint6_linear_142_2)"/>
<path d="M101.12 423.091L194.072 112.879C196.311 104.293 200.791 100 207.51 100C211.243 100 214.416 101.307 217.029 103.92C219.643 106.159 220.949 109.146 220.949 112.879C220.949 113.625 220.949 114.745 220.949 116.239C220.949 117.732 220.576 119.225 219.829 120.718L126.878 430.93C124.264 439.143 119.785 443.249 113.439 443.249C109.706 443.249 106.533 441.943 103.92 439.329C101.307 437.09 100 434.29 100 430.93C100 429.437 100 428.13 100 427.011C100.373 425.517 100.747 424.211 101.12 423.091Z" fill="url(#paint7_linear_142_2)"/>
<g filter="url(#filter4_fg_142_2)">
<path d="M323.122 430.93L230.171 120.718C229.798 119.225 229.424 117.732 229.051 116.239C229.051 114.745 229.051 113.625 229.051 112.879C229.051 109.146 230.357 106.159 232.971 103.92C235.584 101.307 238.757 100 242.49 100C248.836 100 253.315 104.293 255.928 112.879L348.88 423.091C349.627 424.211 350 425.517 350 427.011C350 428.13 350 429.437 350 430.93C350 434.29 348.693 437.09 346.08 439.329C343.467 441.943 340.294 443.249 336.561 443.249C330.215 443.249 325.736 439.143 323.122 430.93Z" fill="url(#paint8_linear_142_2)"/>
<path d="M101.12 423.091L194.072 112.879C196.311 104.293 200.791 100 207.51 100C211.243 100 214.416 101.307 217.029 103.92C219.643 106.159 220.949 109.146 220.949 112.879C220.949 113.625 220.949 114.745 220.949 116.239C220.949 117.732 220.576 119.225 219.829 120.718L126.878 430.93C124.264 439.143 119.785 443.249 113.439 443.249C109.706 443.249 106.533 441.943 103.92 439.329C101.307 437.09 100 434.29 100 430.93C100 429.437 100 428.13 100 427.011C100.373 425.517 100.747 424.211 101.12 423.091Z" fill="url(#paint9_linear_142_2)"/>
</g>
</g>
</g>
</g>
<path d="M327.272 435.41L230.401 113.439C230.027 112.692 229.841 111.759 229.841 110.639C229.841 109.519 229.841 108.772 229.841 108.399C229.841 106.159 230.587 104.293 232.081 102.8C233.947 101.306 236 100.56 238.24 100.56C242.346 100.56 245.146 103.173 246.639 108.399L343.511 430.37C343.884 431.117 344.071 432.05 344.071 433.17C344.071 433.916 344.071 434.663 344.071 435.41C344.071 437.276 343.137 438.956 341.271 440.449C339.778 442.316 337.911 443.249 335.671 443.249C331.938 443.249 329.139 440.636 327.272 435.41Z" fill="white"/>
<path d="M108.459 430.37L205.33 108.399C206.823 103.173 209.623 100.56 213.729 100.56C215.969 100.56 217.835 101.306 219.329 102.8C221.195 104.293 222.128 106.159 222.128 108.399C222.128 108.772 222.128 109.519 222.128 110.639C222.128 111.759 221.942 112.692 221.568 113.439L124.697 435.41C122.831 440.636 120.031 443.249 116.298 443.249C114.058 443.249 112.005 442.316 110.138 440.449C108.645 438.956 107.899 437.276 107.899 435.41C107.899 434.663 107.899 433.916 107.899 433.17C108.272 432.05 108.459 431.117 108.459 430.37Z" fill="white"/>
<defs>
<filter id="filter0_fg_142_2" x="0" y="0" width="450" height="543.249" filterUnits="userSpaceOnUse" color-interpolation-filters="sRGB">
<feFlood flood-opacity="0" result="BackgroundImageFix"/>
<feBlend mode="normal" in="SourceGraphic" in2="BackgroundImageFix" result="shape"/>
<feGaussianBlur stdDeviation="40" result="effect1_foregroundBlur_142_2"/>
<feTurbulence type="fractalNoise" baseFrequency="0.0099999997764825821 0.0099999997764825821" numOctaves="3" seed="6682" />
<feDisplacementMap in="effect1_foregroundBlur_142_2" scale="200" xChannelSelector="R" yChannelSelector="G" result="displacedImage" width="100%" height="100%" />
<feMerge result="effect2_texture_142_2">
<feMergeNode in="displacedImage"/>
</feMerge>
</filter>
<filter id="filter1_fg_142_2" x="0" y="0" width="450" height="543.249" filterUnits="userSpaceOnUse" color-interpolation-filters="sRGB">
<feFlood flood-opacity="0" result="BackgroundImageFix"/>
<feBlend mode="normal" in="SourceGraphic" in2="BackgroundImageFix" result="shape"/>
<feGaussianBlur stdDeviation="40" result="effect1_foregroundBlur_142_2"/>
<feTurbulence type="fractalNoise" baseFrequency="0.0099999997764825821 0.0099999997764825821" numOctaves="3" seed="6682" />
<feDisplacementMap in="effect1_foregroundBlur_142_2" scale="200" xChannelSelector="R" yChannelSelector="G" result="displacedImage" width="100%" height="100%" />
<feMerge result="effect2_texture_142_2">
<feMergeNode in="displacedImage"/>
</feMerge>
</filter>
<filter id="filter2_fg_142_2" x="0" y="0" width="450" height="543.249" filterUnits="userSpaceOnUse" color-interpolation-filters="sRGB">
<feFlood flood-opacity="0" result="BackgroundImageFix"/>
<feBlend mode="normal" in="SourceGraphic" in2="BackgroundImageFix" result="shape"/>
<feGaussianBlur stdDeviation="40" result="effect1_foregroundBlur_142_2"/>
<feTurbulence type="fractalNoise" baseFrequency="0.0099999997764825821 0.0099999997764825821" numOctaves="3" seed="6682" />
<feDisplacementMap in="effect1_foregroundBlur_142_2" scale="200" xChannelSelector="R" yChannelSelector="G" result="displacedImage" width="100%" height="100%" />
<feMerge result="effect2_texture_142_2">
<feMergeNode in="displacedImage"/>
</feMerge>
</filter>
<filter id="filter3_fg_142_2" x="0" y="0" width="450" height="543.249" filterUnits="userSpaceOnUse" color-interpolation-filters="sRGB">
<feFlood flood-opacity="0" result="BackgroundImageFix"/>
<feBlend mode="normal" in="SourceGraphic" in2="BackgroundImageFix" result="shape"/>
<feGaussianBlur stdDeviation="40" result="effect1_foregroundBlur_142_2"/>
<feTurbulence type="fractalNoise" baseFrequency="0.0099999997764825821 0.0099999997764825821" numOctaves="3" seed="6682" />
<feDisplacementMap in="effect1_foregroundBlur_142_2" scale="200" xChannelSelector="R" yChannelSelector="G" result="displacedImage" width="100%" height="100%" />
<feMerge result="effect2_texture_142_2">
<feMergeNode in="displacedImage"/>
</feMerge>
</filter>
<filter id="filter4_fg_142_2" x="0" y="0" width="450" height="543.249" filterUnits="userSpaceOnUse" color-interpolation-filters="sRGB">
<feFlood flood-opacity="0" result="BackgroundImageFix"/>
<feBlend mode="normal" in="SourceGraphic" in2="BackgroundImageFix" result="shape"/>
<feGaussianBlur stdDeviation="40" result="effect1_foregroundBlur_142_2"/>
<feTurbulence type="fractalNoise" baseFrequency="0.0099999997764825821 0.0099999997764825821" numOctaves="3" seed="6682" />
<feDisplacementMap in="effect1_foregroundBlur_142_2" scale="200" xChannelSelector="R" yChannelSelector="G" result="displacedImage" width="100%" height="100%" />
<feMerge result="effect2_texture_142_2">
<feMergeNode in="displacedImage"/>
</feMerge>
</filter>
<linearGradient id="paint0_linear_142_2" x1="96.0804" y1="301.893" x2="488.045" y2="301.893" gradientUnits="userSpaceOnUse">
<stop offset="0.0721154" stop-color="#0099FF"/>
<stop offset="0.225962" stop-color="#FF3399"/>
</linearGradient>
<linearGradient id="paint1_linear_142_2" x1="96.0804" y1="301.893" x2="488.045" y2="301.893" gradientUnits="userSpaceOnUse">
<stop offset="0.0721154" stop-color="#0099FF"/>
<stop offset="0.225962" stop-color="#FF3399"/>
</linearGradient>
<linearGradient id="paint2_linear_142_2" x1="96.0804" y1="301.893" x2="488.045" y2="301.893" gradientUnits="userSpaceOnUse">
<stop offset="0.0721154" stop-color="#0099FF"/>
<stop offset="0.225962" stop-color="#FF3399"/>
</linearGradient>
<linearGradient id="paint3_linear_142_2" x1="96.0804" y1="301.893" x2="488.045" y2="301.893" gradientUnits="userSpaceOnUse">
<stop offset="0.0721154" stop-color="#0099FF"/>
<stop offset="0.225962" stop-color="#FF3399"/>
</linearGradient>
<linearGradient id="paint4_linear_142_2" x1="96.0804" y1="301.893" x2="488.045" y2="301.893" gradientUnits="userSpaceOnUse">
<stop offset="0.0721154" stop-color="#0099FF"/>
<stop offset="0.225962" stop-color="#FF3399"/>
</linearGradient>
<linearGradient id="paint5_linear_142_2" x1="96.0804" y1="301.893" x2="488.045" y2="301.893" gradientUnits="userSpaceOnUse">
<stop offset="0.0721154" stop-color="#0099FF"/>
<stop offset="0.225962" stop-color="#FF3399"/>
</linearGradient>
<linearGradient id="paint6_linear_142_2" x1="96.0804" y1="301.893" x2="488.045" y2="301.893" gradientUnits="userSpaceOnUse">
<stop offset="0.0721154" stop-color="#0099FF"/>
<stop offset="0.225962" stop-color="#FF3399"/>
</linearGradient>
<linearGradient id="paint7_linear_142_2" x1="96.0804" y1="301.893" x2="488.045" y2="301.893" gradientUnits="userSpaceOnUse">
<stop offset="0.0721154" stop-color="#0099FF"/>
<stop offset="0.225962" stop-color="#FF3399"/>
</linearGradient>
<linearGradient id="paint8_linear_142_2" x1="96.0804" y1="301.893" x2="488.045" y2="301.893" gradientUnits="userSpaceOnUse">
<stop offset="0.0721154" stop-color="#0099FF"/>
<stop offset="0.225962" stop-color="#FF3399"/>
</linearGradient>
<linearGradient id="paint9_linear_142_2" x1="96.0804" y1="301.893" x2="488.045" y2="301.893" gradientUnits="userSpaceOnUse">
<stop offset="0.0721154" stop-color="#0099FF"/>
<stop offset="0.225962" stop-color="#FF3399"/>
</linearGradient>
</defs>
</svg>
